<svg width="28" height="29" viewBox="0 0 28 29" fill="none" xmlns="http://www.w3.org/2000/svg">
<path d="M12.4444 16.1111V20.9444C12.4444 21.4009 12.5938 21.7838 12.8924 22.0932C13.1911 22.4025 13.5603 22.5566 14 22.5556C14.4397 22.5545 14.8094 22.3998 15.1091 22.0916C15.4088 21.7833 15.5576 21.4009 15.5556 20.9444V16.1111H20.2222C20.663 16.1111 21.0327 15.9564 21.3313 15.6471C21.63 15.3378 21.7788 14.9554 21.7778 14.5C21.7767 14.0446 21.6274 13.6622 21.3298 13.3529C21.0321 13.0436 20.663 12.8889 20.2222 12.8889H15.5556V8.05555C15.5556 7.59907 15.4062 7.2167 15.1076 6.90844C14.8089 6.60018 14.4397 6.44552 14 6.44444C13.5603 6.44337 13.1911 6.59804 12.8924 6.90844C12.5938 7.21885 12.4444 7.60122 12.4444 8.05555V12.8889H7.77778C7.33704 12.8889 6.96785 13.0436 6.67022 13.3529C6.37259 13.6622 6.22326 14.0446 6.22222 14.5C6.22118 14.9554 6.37052 15.3383 6.67022 15.6487C6.96992 15.9591 7.33911 16.1133 7.77778 16.1111H12.4444ZM3.11111 29C2.25556 29 1.52341 28.6848 0.914667 28.0543C0.305926 27.4238 0.00103704 26.665 0 25.7778V3.22222C0 2.33611 0.304889 1.57781 0.914667 0.947333C1.52444 0.316852 2.25659 0.00107407 3.11111 0H24.8889C25.7444 0 26.4771 0.315778 27.0869 0.947333C27.6967 1.57889 28.001 2.33718 28 3.22222V25.7778C28 26.6639 27.6956 27.4227 27.0869 28.0543C26.4781 28.6858 25.7455 29.0011 24.8889 29H3.11111ZM3.11111 25.7778H24.8889V3.22222H3.11111V25.7778Z" fill="white"/>
</svg>
