<svg width="16" height="16" viewBox="0 0 16 16" fill="none" xmlns="http://www.w3.org/2000/svg">
<path d="M7.19995 7.18404C7.19995 6.97187 7.28424 6.76839 7.43427 6.61836C7.5843 6.46833 7.78778 6.38404 7.99995 6.38404C8.21212 6.38404 8.41561 6.46833 8.56564 6.61836C8.71567 6.76839 8.79995 6.97187 8.79995 7.18404V11.984C8.79995 12.1962 8.71567 12.3997 8.56564 12.5497C8.41561 12.6998 8.21212 12.784 7.99995 12.784C7.78778 12.784 7.5843 12.6998 7.43427 12.5497C7.28424 12.3997 7.19995 12.1962 7.19995 11.984V7.18404ZM7.99995 3.24084C7.78778 3.24084 7.5843 3.32513 7.43427 3.47516C7.28424 3.62519 7.19995 3.82867 7.19995 4.04084C7.19995 4.25302 7.28424 4.4565 7.43427 4.60653C7.5843 4.75656 7.78778 4.84084 7.99995 4.84084C8.21212 4.84084 8.41561 4.75656 8.56564 4.60653C8.71567 4.4565 8.79995 4.25302 8.79995 4.04084C8.79995 3.82867 8.71567 3.62519 8.56564 3.47516C8.41561 3.32513 8.21212 3.24084 7.99995 3.24084Z" fill="white"/>
<path fill-rule="evenodd" clip-rule="evenodd" d="M8 0C3.5816 0 0 3.5816 0 8C0 12.4184 3.5816 16 8 16C12.4184 16 16 12.4184 16 8C16 3.5816 12.4184 0 8 0ZM1.6 8C1.6 9.69739 2.27428 11.3253 3.47452 12.5255C4.67475 13.7257 6.30261 14.4 8 14.4C9.69739 14.4 11.3253 13.7257 12.5255 12.5255C13.7257 11.3253 14.4 9.69739 14.4 8C14.4 6.30261 13.7257 4.67475 12.5255 3.47452C11.3253 2.27428 9.69739 1.6 8 1.6C6.30261 1.6 4.67475 2.27428 3.47452 3.47452C2.27428 4.67475 1.6 6.30261 1.6 8Z" fill="white"/>
</svg>
