<svg width="13" height="13" viewBox="0 0 13 13" fill="none" xmlns="http://www.w3.org/2000/svg">
<path fill-rule="evenodd" clip-rule="evenodd" d="M0.971905 0.944427C0.971804 0.781216 1.01469 0.620857 1.09625 0.479487C1.17782 0.338117 1.29518 0.220722 1.43652 0.139117C1.57787 0.0575109 1.73821 0.014573 1.90142 0.0146233C2.06463 0.0146735 2.22495 0.0577103 2.36625 0.139403L11.6302 5.48777C11.7715 5.56933 11.8888 5.68663 11.9703 5.82789C12.0519 5.96915 12.0948 6.12939 12.0948 6.2925C12.0948 6.45561 12.0519 6.61585 11.9704 6.75711C11.8888 6.89837 11.7715 7.01568 11.6302 7.09724L2.3661 12.4459C2.22484 12.5274 2.0646 12.5704 1.90149 12.5704C1.73838 12.5704 1.57814 12.5274 1.43688 12.4459C1.29563 12.3643 1.17832 12.247 1.09677 12.1058C1.01521 11.9645 0.972278 11.8043 0.972278 11.6411L0.972442 0.944117L0.971905 0.944427Z" fill="white"/>
</svg>
