<svg width="46" height="46" viewBox="0 0 46 46" fill="none" xmlns="http://www.w3.org/2000/svg">
<path d="M23 3.83334C33.5857 3.83334 42.1666 12.4143 42.1666 23C42.1666 33.5858 33.5857 42.1667 23 42.1667C12.4142 42.1667 3.83331 33.5858 3.83331 23C3.83331 12.4143 12.4142 3.83334 23 3.83334ZM23 7.66668C18.9333 7.66668 15.0332 9.28215 12.1577 12.1577C9.28212 15.0333 7.66665 18.9334 7.66665 23C7.66665 27.0667 9.28212 30.9668 12.1577 33.8423C15.0332 36.7179 18.9333 38.3333 23 38.3333C27.0666 38.3333 30.9667 36.7179 33.8423 33.8423C36.7178 30.9668 38.3333 27.0667 38.3333 23C38.3333 18.9334 36.7178 15.0333 33.8423 12.1577C30.9667 9.28215 27.0666 7.66668 23 7.66668ZM23 11.5C23.4694 11.5001 23.9225 11.6724 24.2734 11.9844C24.6242 12.2963 24.8483 12.7262 24.9032 13.1924L24.9166 13.4167V22.2065L30.1051 27.3949C30.4488 27.7398 30.6484 28.2027 30.6632 28.6894C30.6781 29.1761 30.5072 29.6503 30.1851 30.0155C29.863 30.3808 29.414 30.6098 28.9292 30.6559C28.4445 30.7021 27.9603 30.562 27.5751 30.2642L27.3949 30.1051L21.6449 24.3551C21.347 24.0569 21.1557 23.6689 21.1006 23.2511L21.0833 23V13.4167C21.0833 12.9083 21.2852 12.4208 21.6447 12.0614C22.0041 11.7019 22.4916 11.5 23 11.5Z" fill="white"/>
</svg>
